# xmcd
#
# Track frame offsets:
# 150
# 35450
# 52865
# 68180
# 91315
# 107912
# 123880
# 141945
# 157622
# 178242
# 193202
# 214037
#
# Disc length: 3067 seconds
#
# Revision: 0
# Processed by: cddbd v1.4PL0 Copyright (c) Steve Scherf et al.
# Submitted via: MacMP3 Pro 5.0 (http://mp3.act2.co.jp/)
#
DISCID=a40bf90c
DTITLE=VANESSA MAE - RED HOT
DYEAR=1900
DGENRE=
TTITLE0=Toccata and in D minor
TTITLE1=Contradanza
TTITLE2=Classical gas
TTITLE3=Theme from 'Garavans'
TTITLE4=Warm Air
TTITLE5=Jazz Will Eat Itself
TTITLE6=Widescreen
TTITLE7=Tequiia Mockingbird
TTITLE8=City Theme
TTITLE9=Red Hot
TTITLE10=I Will Love You
TTITLE11=Toccata and in D minor-D's Radio Mix
EXTD=
EXTT0=
EXTT1=
EXTT2=
EXTT3=
EXTT4=
EXTT5=
EXTT6=
EXTT7=
EXTT8=
EXTT9=
EXTT10=
EXTT11=
PLAYORDER=
